<?xml version="1.0" encoding="UTF-8" standalone="no"?>
<!DOCTYPE svg PUBLIC "-//W3C//DTD SVG 1.1//EN" "http://www.w3.org/Graphics/SVG/1.1/DTD/svg11.dtd">
<svg width="100%" height="100%" viewBox="0 0 130 200" version="1.1" xmlns="http://www.w3.org/2000/svg" xmlns:xlink="http://www.w3.org/1999/xlink" xml:space="preserve" xmlns:serif="http://www.serif.com/" style="fill-rule:evenodd;clip-rule:evenodd;stroke-linejoin:round;stroke-miterlimit:2;">
    <g transform="matrix(0.5,0,0,0.5,0,0)">
        <g id="Layer1">
            <g>
                <path d="M260.501,34.842C260.501,15.482 244.783,-0.235 225.424,-0.235L35.668,-0.235C16.309,-0.235 0.592,15.482 0.592,34.842L0.592,364.575C0.592,383.934 16.309,399.652 35.668,399.652L225.424,399.652C244.783,399.652 260.501,383.934 260.501,364.575L260.501,34.842ZM31.163,193.135L21.916,205.459C21.046,201.351 20.611,197.243 20.611,193.135C20.611,180.075 24.157,169.24 31.248,160.629C38.34,152.019 47.256,147.714 57.998,147.714C59.775,147.714 61.345,147.819 62.707,148.03C63.614,148.135 64.22,148.188 64.522,148.188L65.26,148.188C65.222,149.715 65.203,150.821 65.203,151.505C65.203,159.616 67.737,172.676 72.805,190.687L75.358,199.692C75.698,200.956 76.247,203.036 77.003,205.933L79.102,214.148C80.237,218.466 81.22,222.758 82.053,227.024L85.003,220.231C88.255,212.7 91.168,205.854 93.739,199.692L99.299,186.342L103.611,175.283L108.83,162.012C109.322,160.8 110.287,158.325 111.724,154.586L122.673,145.028C120.253,164.671 119.042,180.444 119.042,192.346L118.305,218.177L118.135,227.893C118.135,236.108 118.522,241.493 119.298,244.047C120.073,246.601 121.728,247.879 124.262,247.879C126.947,247.879 129.349,247.352 131.467,246.299C131.807,246.931 131.977,247.484 131.977,247.958C131.977,249.695 130.691,250.986 128.12,251.828L125.113,252.855L109.001,257.437C108.811,252.487 108.717,247.931 108.717,243.771C108.717,216.913 109.568,193.056 111.27,172.202C106.05,182.524 102.117,190.897 99.469,197.322L96.066,205.459C91.413,216.623 87.65,227.393 84.776,237.767L76.606,249.616C76.077,239.663 73.259,225.681 68.153,207.67L65.94,199.692C65.638,198.744 64.957,196.427 63.898,192.741C61.742,185.473 60.135,178.522 59.076,171.886L54.48,210.988C53.119,222.732 51.7,230.724 50.225,234.963C48.75,239.202 46.141,242.691 42.396,245.43L56.693,246.931L49.431,256.173L25.206,254.435L32.525,244.64L38.936,245.43C41.432,242.849 43.209,239.689 44.268,235.95C45.327,232.211 46.557,224.654 47.956,213.279L54.764,157.746L52.098,157.746C36.364,157.746 28.497,164.987 28.497,179.469C28.497,183.998 29.386,188.554 31.163,193.135ZM162.386,231.448C163.407,232.29 163.918,233.107 163.918,233.897C163.918,235.792 162.273,239.531 158.982,245.114C154.557,252.697 150.453,256.489 146.671,256.489C143.91,256.489 142.53,253.935 142.53,248.826C142.53,246.667 143.097,240.032 144.232,228.92L146.444,207.433L147.012,201.983L147.465,197.638C147.655,195.795 147.749,194.241 147.749,192.978C147.749,190.344 147.22,189.028 146.161,189.028C143.21,189.028 140.033,193.557 136.629,202.615C135.911,201.72 135.552,200.824 135.552,199.929C135.552,196.717 137.679,192.398 141.934,186.974C146.189,181.55 149.583,178.838 152.117,178.838C154.954,178.838 156.372,181.576 156.372,187.053C156.372,188.106 156.221,190.265 155.919,193.53L155.408,198.823C155.37,199.244 155.162,201.377 154.784,205.222L152.458,227.814L151.891,232.87C151.399,237.873 151.153,241.217 151.153,242.902C151.153,245.166 151.626,246.299 152.571,246.299C155.748,246.299 159.02,241.348 162.386,231.448ZM192.284,231.211C193.381,231.948 193.93,232.896 193.93,234.055C193.93,237.846 191.897,242.533 187.831,248.116C183.765,253.698 180.351,256.489 177.59,256.489C174.451,256.489 172.882,253.329 172.882,247.01C172.882,243.165 173.052,239.242 173.392,235.239L174.016,228.209L178.385,173.229C179.746,156.482 183.878,142.5 190.781,131.283C197.683,120.066 205.635,114.457 214.637,114.457C216.831,114.457 218.684,114.72 220.197,115.247L212.141,126.701C210.363,125.859 208.283,125.437 205.9,125.437C200.227,125.437 195.981,128.215 193.164,133.771C190.346,139.327 188.408,148.741 187.349,162.012L182.072,228.209C181.656,233.317 181.448,236.977 181.448,239.189C181.448,243.929 182.035,246.299 183.207,246.299C184.606,246.299 186.252,244.732 188.143,241.599C190.034,238.465 191.414,235.002 192.284,231.211ZM223.26,231.211C224.357,231.948 224.906,232.896 224.906,234.055C224.906,237.846 222.873,242.533 218.807,248.116C214.741,253.698 211.328,256.489 208.567,256.489C205.427,256.489 203.858,253.329 203.858,247.01C203.858,243.165 204.028,239.242 204.368,235.239L204.992,228.209L209.361,173.229C210.722,156.482 214.854,142.5 221.757,131.283C228.659,120.066 236.611,114.457 245.613,114.457C247.807,114.457 249.66,114.72 251.173,115.247L243.117,126.701C241.339,125.859 239.259,125.437 236.876,125.437C231.203,125.437 226.957,128.215 224.14,133.771C221.322,139.327 219.384,148.741 218.325,162.012L213.048,228.209C212.632,233.317 212.424,236.977 212.424,239.189C212.424,243.929 213.011,246.299 214.183,246.299C215.583,246.299 217.228,244.732 219.119,241.599C221.01,238.465 222.39,235.002 223.26,231.211ZM150.983,168.647L155.748,152.295C159.984,149.873 163.464,146.529 166.187,142.263C166.565,143 166.755,143.764 166.755,144.554C166.755,151.611 161.497,159.642 150.983,168.647Z" style="fill:rgb(128,128,128);"/>
            </g>
        </g>
    </g>
</svg>
